# xmcd
#
# Track frame offsets:
#	150
#	22645
#	45780
#	67945
#	115660
#	127885
#	151455
#	157810
#	174395
#
# Disc length: 2566 seconds
#
# Revision: 2
# Processed by: cddbd v1.5.1PL2 Copyright (c) Steve Scherf et al.
# Submitted via: EasyCDDAExtractor 8.0.2.1
#
DISCID=530a0409
DTITLE=Dio - Tingley Coliseum Albuquerque 02-03-88 Disc 1
DYEAR=1988
DGENRE=Hard Rock
TTITLE0=Stand Up And Shout
TTITLE1=Dream Evil
TTITLE2=Night People
TTITLE3=Naked In The Rain - Guitar Solo
TTITLE4=Naked In The Rain Reprise
TTITLE5=The Last In Line
TTITLE6=Holy Diver
TTITLE7=Drum Solo
TTITLE8=Heaven and Hell
EXTD=
EXTT0=
EXTT1=
EXTT2=
EXTT3=
EXTT4=
EXTT5=
EXTT6=
EXTT7=
EXTT8=
PLAYORDER=
